# xmcd
#
# Track frame offsets:
#	150
#	12528
#	22334
#	33712
#	46281
#	56892
#	69460
#	79523
#	91168
#	100021
#	111095
#	121866
#	129657
#	142028
#	151756
#	163065
#	174494
#	184541
#
# Disc length: 2616 seconds
#
# Revision: 1
# Processed by: cddbd v1.5.2PL0 Copyright (c) Steve Scherf et al.
# Submitted via: audiograbber 1.83.01
#
DISCID=f00a3612
DTITLE=Marschmusik - Alte Kameraden
DYEAR=1900
DGENRE=
TTITLE0=Einzug der Gladiatoren
TTITLE1=Andreas-Hofer-Marsch
TTITLE2=Kaiserschützen-Marsch
TTITLE3=Fridericus-Rex
TTITLE4=Der grüne Jägersmann
TTITLE5=Hohenfriedberger Marsch
TTITLE6=84er Regimentsmarsch
TTITLE7=Mit voller Kraft
TTITLE8=Alexander-Marsch
TTITLE9=Hoch- und Deutschmeister
TTITLE10=Jetzt gehts los
TTITLE11=Geschwind-Marsch
TTITLE12=Alte Kameraden
TTITLE13=Castaldo- Marsch
TTITLE14=Graf Zeppelin-Marsch
TTITLE15=Abschied der Gladiatoren
TTITLE16=Defiliermarsch
TTITLE17=Unter dem Doppeladler
EXTD=
EXTT0=
EXTT1=
EXTT2=
EXTT3=
EXTT4=
EXTT5=
EXTT6=
EXTT7=
EXTT8=
EXTT9=
EXTT10=
EXTT11=
EXTT12=
EXTT13=
EXTT14=
EXTT15=
EXTT16=
EXTT17=
PLAYORDER=
